<?xml version="1.0" encoding="utf-8" ?>
<svg xmlns="http://www.w3.org/2000/svg" xmlns:xlink="http://www.w3.org/1999/xlink" width="512" height="512">
	<path fill="#D9376D" d="M46.2871 361.199L46.2391 46.7278C46.2401 42.5315 45.9974 38.1972 46.3149 34.0239C47.4446 19.1714 61.0495 11.7753 74.6392 11.7486L85.5485 11.75C88.2021 11.7543 91.8548 11.3046 94.3894 11.9779C98.1658 12.981 101.433 17.5476 101.563 21.4368L101.647 334.66L101.966 484.017C101.951 486.299 102.251 489.135 101.419 491.261L101.278 491.642C100.289 494.21 98.5655 496.328 95.875 497.057L95.4245 497.183C94.4994 497.416 93.3231 497.324 92.3725 497.333L86.6989 497.338C79.8118 497.332 72.8405 498.07 66.0963 496.459C55.2796 493.874 47.7032 483.249 46.4187 472.55C45.9327 468.502 46.2457 464.178 46.2447 460.089L46.2871 361.199ZM101.657 334.66L101.571 442.641C101.551 445.58 101.957 448.566 101.689 451.5L101.689 452.25C101.689 453.401 101.73 454.48 101.627 455.625L100.985 485.39L100.608 485.923C100.608 487.965 95.2276 493.738 96.375 496.5L95.9961 496.52C95.326 496.571 93.9622 496.748 93.375 497L93.0391 496.933C92.5915 496.86 92.4309 496.915 92 496.971C86.7767 497.66 80.4974 497.339 75.25 496.939L74.918 496.946C73.6113 496.944 72.0903 496.776 70.75 496.689L70.293 496.696C69.7781 496.695 69.696 496.577 69.25 496.5L67.75 496.25C67.2986 496.157 66.9529 496.146 66.5 496L65.6406 495.82C64.8668 495.691 64.1313 495.409 63.5 494.939L63 494.875C57.9308 493.489 54.327 488.161 51.1198 484.318C44.3817 476.243 46.3424 450.527 46.3424 440.368L46.2871 361.199L46.2447 460.089C46.2457 464.178 45.9327 468.502 46.4187 472.55C47.7032 483.249 55.2796 493.874 66.0963 496.459C72.8405 498.07 79.8118 497.332 86.6989 497.338L92.3725 497.333C93.3231 497.324 94.4994 497.416 95.4245 497.183L95.875 497.057C98.5655 496.328 100.289 494.21 101.278 491.642L101.419 491.261C102.251 489.135 101.951 486.299 101.966 484.017L101.657 334.66Z"/>
	<defs>
		<linearGradient id="gradient_0" gradientUnits="userSpaceOnUse" x1="87.831413" y1="41.940002" x2="461.52942" y2="466.57294">
			<stop offset="0" stop-color="#B8067B"/>
			<stop offset="1" stop-color="#FFA465"/>
		</linearGradient>
	</defs>
	<path fill="url(#gradient_0)" d="M139.567 497.3L124.625 497.658C114.486 497.521 117.247 476.907 117.256 470.76L117.233 21.7547C117.288 17.6416 119.283 11.8202 124.25 11.6526L402.727 11.7271C407.144 11.7261 411.71 11.4674 416.107 11.7782C430.593 12.8024 444.386 26.006 446.639 40.2993C447.195 43.8276 447.686 51.2032 447.348 54.7471L456.595 55.1625C458.3 55.1844 460.784 54.987 462.272 55.889L463.271 56.416C463.951 56.8599 465.103 58.0058 465.267 58.8172L465.675 61.875C465.976 65.5353 465.823 69.3024 465.827 72.9758L465.876 107.249C465.883 111.039 466.838 116.478 464.134 119.584L463.659 120.127C462.057 121.893 457.967 121.434 455.851 121.449L446.768 121.577L447.822 154.496L458.902 155.336L459.157 173.327C459.141 177.31 450.235 177.638 447.709 177.465L447.734 200.253C451.042 200.257 463.15 199.712 465.279 201.765C465.865 202.329 465.801 203.96 465.818 204.736L465.854 249.625C465.848 259.215 466.449 261.865 454.992 261.868L447.276 261.85L447.627 277.753C447.633 281.646 447.46 285.583 448.101 289.434C448.353 290.965 448.441 292.568 448.986 294.019C448.497 295.206 447.612 296.754 447.475 298L447.417 298.471C446.643 304.986 448.245 311.97 447.763 319.152C447.396 324.606 447.126 331.241 448.084 336.621L448.183 337.213L449.335 344.027C446.28 346.332 447.647 352.415 447.651 355.828L447.695 375.334L456.849 375.457C459.958 375.508 463.482 374.899 465.064 378.247L465.2 378.51C465.697 379.525 465.75 380.616 465.791 381.725L465.877 446.931C465.9 450.214 466.838 452.895 463.264 454.543L462.415 454.897C459.132 456.269 451.276 455.55 447.704 455.267C447.711 459.173 447.999 463.335 447.613 467.21C446.184 481.538 434.457 494.932 419.969 497.162C417.588 497.529 415.02 497.359 412.611 497.35L139.567 497.3ZM239.076 236.087C238.122 240.542 237.978 245.162 238.155 249.511C237.305 249.238 235.99 249.388 235.086 249.381L205.043 249.394C199.892 249.407 194.603 249.147 189.505 249.973L191.157 260.411C198.297 294.828 225.834 324.48 261.711 328.336C309.724 333.497 348.812 302.674 356.593 255.065C356.882 253.296 356.897 251.51 357.265 249.747L309.43 249.425C309.293 244.834 308.936 240.46 308.119 235.933C307.942 234.876 307.205 233.702 306.715 232.75C291.46 203.107 248.893 204.534 239.076 236.087ZM239.076 236.087C248.893 204.534 291.46 203.107 306.715 232.75C307.205 233.702 307.942 234.876 308.119 235.893C309.937 235.602 311.965 235.729 313.809 235.728L356.76 235.75C356.813 235.443 356.821 235.58 356.738 235.254L354.592 225.369C344.804 188.445 310.952 163.429 273.203 163.656C229.8 163.917 197.321 193.973 190.303 235.724L232.868 235.775C234.831 235.774 236.88 235.647 238.824 235.934L239.076 236.087Z"/>
	<path fill="#A01A7D" d="M239.076 236.087C248.893 204.534 291.46 203.107 306.715 232.75C307.205 233.702 307.942 234.876 308.119 235.933C308.936 240.46 309.293 244.834 309.43 249.425C306.997 273.593 280.931 289.635 258.475 279.187C247.046 273.869 239.387 262.143 238.155 249.711C237.978 245.162 238.122 240.542 239.076 236.087Z"/>
</svg>
