<svg xmlns="http://www.w3.org/2000/svg">
  <g id="the">
   <path id="letter-t" d="m19.32698,0.99201c-0.288,-0.288 -0.64,-0.448 -1.088,-0.448l-17.12,0c-0.448,0 -0.832,0.16 -1.12,0.448c-0.288,0.288 -0.416,0.64 -0.416,1.088c0,0.448 0.128,0.832 0.416,1.12c0.288,0.288 0.672,0.416 1.12,0.416l6.912,0l0,20.256c0,0.48 0.16,0.864 0.48,1.184c0.32,0.32 0.704,0.48 1.184,0.48c0.448,0 0.864,-0.16 1.184,-0.48c0.32,-0.32 0.48,-0.704 0.48,-1.184l0,-20.256l6.88,0c0.448,0 0.8,-0.128 1.088,-0.416c0.288,-0.288 0.448,-0.672 0.448,-1.12c0,-0.448 -0.16,-0.8 -0.448,-1.088z" stroke-width="0" stroke-miterlimit="2" fill="#de85de" stroke="#de85de"/>
   <path id="letter-h" d="m46.28398,1.02401c-0.32,0.32 -0.48,0.704 -0.48,1.184l0,9.184l-14.848,0l0,-9.184c0,-0.48 -0.16,-0.864 -0.48,-1.184c-0.32,-0.32 -0.704,-0.48 -1.184,-0.48c-0.48,0 -0.864,0.16 -1.184,0.48c-0.32,0.32 -0.48,0.704 -0.48,1.184l0,21.664c0,0.48 0.16,0.864 0.48,1.184c0.32,0.32 0.704,0.48 1.184,0.48c0.48,0 0.864,-0.16 1.184,-0.48c0.32,-0.32 0.48,-0.704 0.48,-1.184l0,-9.536l14.848,0l0,9.536c0,0.48 0.16,0.864 0.48,1.184c0.32,0.32 0.704,0.48 1.184,0.48c0.448,0 0.832,-0.128 1.152,-0.448c0.32,-0.32 0.48,-0.704 0.48,-1.216l0,-21.664c0,-0.48 -0.16,-0.864 -0.48,-1.184c-0.32,-0.32 -0.704,-0.48 -1.152,-0.48c-0.48,0 -0.864,0.16 -1.184,0.48z" stroke-width="0" stroke-miterlimit="2" fill="#de85de" stroke="#de85de"/>
   <path id="letter-e" d="m77.01498,22.88001c-0.32,-0.256 -0.704,-0.416 -1.184,-0.416l-12.8,0l0,-8l9.184,0c0.448,0 0.832,-0.128 1.152,-0.416c0.32,-0.288 0.48,-0.672 0.48,-1.12c0,-0.448 -0.16,-0.8 -0.48,-1.088c-0.32,-0.288 -0.704,-0.448 -1.152,-0.448l-9.184,0l0,-7.776l12.8,0c0.48,0 0.864,-0.128 1.184,-0.416c0.288,-0.256 0.448,-0.64 0.448,-1.088c0,-0.448 -0.16,-0.832 -0.448,-1.12c-0.32,-0.288 -0.704,-0.448 -1.184,-0.448l-14.464,0c-0.48,0 -0.864,0.16 -1.184,0.48c-0.32,0.32 -0.48,0.704 -0.48,1.184l0,21.664c0,0.48 0.16,0.864 0.48,1.184c0.32,0.32 0.704,0.48 1.184,0.48l14.464,0c0.48,0 0.864,-0.128 1.184,-0.416c0.288,-0.288 0.448,-0.672 0.448,-1.152c0,-0.448 -0.16,-0.8 -0.448,-1.088z" stroke-width="0" stroke-miterlimit="2" fill="#de85de" stroke="#de85de"/>
  </g>
  <g id="dex">
   <path id="letter-d" d="m108.8363,52.46401l-105.17043,0c-2.1384,0 -4.0824,1.944 -4.0824,4.0824l0,19.2456c0,2.3328 1.944,4.0824 4.0824,4.0824l105.17043,0c14.77437,0 26.63277,12.0528 26.63277,26.8272l0,27.6048c0,14.7744 -11.8584,26.8272 -26.63277,26.8272l-81.8424,0l0,-49.572c0,-2.3328 -1.74963,-4.0824 -4.0824,-4.0824l-19.24563,0c-2.1384,0 -4.0824,1.7496 -4.0824,4.0824l0,72.9c0,2.1384 1.944,4.0824 4.0824,4.0824l105.17043,0c29.93757,0 54.23757,-24.3 54.23757,-54.2376l0,-27.6048c0,-29.9376 -24.3,-54.2376 -54.23757,-54.2376z" stroke-width="0" stroke-miterlimit="2" fill="#964baa" stroke="#964baa"/>
   <path id="letter-e" d="m345.55772,52.46401l-155.1312,0c-2.1384,0 -4.0824,1.7496 -4.0824,4.0824l0,19.2456c0,2.3328 1.944,4.0824 4.0824,4.0824l155.1312,0c2.3328,0 4.2768,-1.7496 4.2768,-4.0824l0,-19.2456c0,-2.3328 -1.944,-4.0824 -4.2768,-4.0824zm0,108.6696l-131.8032,0l0,-26.8272l104.3928,0c2.3328,0 4.0824,-1.944 4.0824,-4.2768l0,-19.0512c0,-2.3328 -1.7496,-4.2768 -4.0824,-4.2768l-127.7208,0c-2.1384,0 -4.0824,1.944 -4.0824,4.2768l0,73.4832c0,2.1384 1.944,4.0824 4.0824,4.0824l155.1312,0c2.3328,0 4.2768,-1.944 4.2768,-4.0824l0,-19.2456c0,-2.3328 -1.944,-4.0824 -4.2768,-4.0824z" stroke-width="0" stroke-miterlimit="2" fill="#c1398c" stroke="#c1398c"/>
   <path id="letter-x" d="m531.87191,182.32322l-28.9656,-50.9328c-2.1384,-4.0824 -5.0544,-7.776 -8.3592,-10.8864c3.3048,-3.1104 6.2208,-6.804 8.3592,-10.8864l28.9656,-50.9328c1.5552,-2.7216 -0.3888,-6.2208 -3.6936,-6.2208l-21.9672,0c-1.5552,0 -2.916,0.7776 -3.6936,2.1384l-23.5224,41.6016c-3.6936,6.4152 -10.692,10.4976 -18.0792,10.4976l-25.8552,0c-7.5816,0 -14.3856,-4.0824 -18.2736,-10.4976l-23.5224,-41.6016c-0.5832,-1.3608 -1.944,-2.1384 -3.4992,-2.1384l-22.1616,0c-3.1104,0 -5.0544,3.4992 -3.4992,6.2208l28.7712,50.9328c2.3328,4.0824 5.2488,7.776 8.3592,10.8864c-3.1104,3.1104 -6.0264,6.804 -8.3592,10.8864l-28.7712,50.9328c-1.5552,2.7216 0.3888,6.2208 3.4992,6.2208l22.1616,0c1.5552,0 2.916,-0.7776 3.4992,-2.1384l23.5224,-41.6016c3.888,-6.4152 10.692,-10.4976 18.2736,-10.4976l25.8552,0c7.3872,0 14.3856,4.0824 18.0792,10.4976l23.5224,41.6016c0.7776,1.3608 2.1384,2.1384 3.6936,2.1384l21.9672,0c3.3048,0 5.2488,-3.4992 3.6936,-6.2208z" stroke-width="0" stroke-miterlimit="2" fill="#eb266e" stroke="#eb266e"/>
  </g>
</svg>