<!-- Shape: dex-logo -->
<svg xmlns:xlink="http://www.w3.org/1999/xlink" fill="none" width="269" xmlns="http://www.w3.org/2000/svg" style="-webkit-print-color-adjust:exact" id="screenshot-72acc422-41ff-807d-8002-075ac48aa5cf" version="1.1" viewBox="37 -1140 269 95" height="95">
  <g id="shape-72acc422-41ff-807d-8002-075ac48aa5cf" style="fill:#000000" rx="0" ry="0">
    <g id="shape-72acc422-41ff-807d-8002-075ac48aa5d1" style="fill:#000000" rx="0" ry="0">
      <g id="shape-72acc422-41ff-807d-8002-075ac48aa5d2">
        <g class="fills" id="fills-72acc422-41ff-807d-8002-075ac48aa5d2">
          <path stroke-miterlimit="2" rx="0" ry="0" style="fill:#de85de" d="M46.967,-1139.500C46.822,-1139.645,46.644,-1139.726,46.418,-1139.726L37.775,-1139.726C37.549,-1139.726,37.355,-1139.645,37.210,-1139.500C37.064,-1139.355,37.000,-1139.178,37.000,-1138.952C37.000,-1138.726,37.064,-1138.533,37.210,-1138.388C37.355,-1138.243,37.549,-1138.178,37.775,-1138.178L41.265,-1138.178L41.265,-1127.972C41.265,-1127.730,41.345,-1127.536,41.507,-1127.375C41.669,-1127.214,41.862,-1127.133,42.105,-1127.133C42.331,-1127.133,42.541,-1127.214,42.703,-1127.375C42.864,-1127.536,42.945,-1127.730,42.945,-1127.972L42.945,-1138.178L46.418,-1138.178C46.644,-1138.178,46.822,-1138.243,46.967,-1138.388C47.113,-1138.533,47.194,-1138.726,47.194,-1138.952C47.194,-1139.178,47.113,-1139.355,46.967,-1139.500ZZ">
          </path>
        </g>
        <g id="strokes-72acc422-41ff-807d-8002-075ac48aa5d2" class="strokes">
          <g class="inner-stroke-shape">
            <defs>
              <clipPath id="inner-stroke-rumext-id-63--0">
                <use href="#stroke-shape-rumext-id-63--0">
                </use>
              </clipPath>
              <path stroke-miterlimit="2" rx="0" ry="0" style="fill:none;fill-opacity:none;stroke-width:4;stroke:#ffffff;stroke-opacity:0.5;stroke-dasharray:" d="M46.967,-1139.500C46.822,-1139.645,46.644,-1139.726,46.418,-1139.726L37.775,-1139.726C37.549,-1139.726,37.355,-1139.645,37.210,-1139.500C37.064,-1139.355,37.000,-1139.178,37.000,-1138.952C37.000,-1138.726,37.064,-1138.533,37.210,-1138.388C37.355,-1138.243,37.549,-1138.178,37.775,-1138.178L41.265,-1138.178L41.265,-1127.972C41.265,-1127.730,41.345,-1127.536,41.507,-1127.375C41.669,-1127.214,41.862,-1127.133,42.105,-1127.133C42.331,-1127.133,42.541,-1127.214,42.703,-1127.375C42.864,-1127.536,42.945,-1127.730,42.945,-1127.972L42.945,-1138.178L46.418,-1138.178C46.644,-1138.178,46.822,-1138.243,46.967,-1138.388C47.113,-1138.533,47.194,-1138.726,47.194,-1138.952C47.194,-1139.178,47.113,-1139.355,46.967,-1139.500ZZ" id="stroke-shape-rumext-id-63--0">
              </path>
            </defs>
            <use href="#stroke-shape-rumext-id-63--0" clip-path="url(&#x27;#inner-stroke-rumext-id-63--0&#x27;)">
            </use>
          </g>
        </g>
      </g>
      <g id="shape-72acc422-41ff-807d-8002-075ac48aa5d3">
        <g class="fills" id="fills-72acc422-41ff-807d-8002-075ac48aa5d3">
          <path stroke-miterlimit="2" rx="0" ry="0" style="fill:#de85de" d="M60.577,-1139.484C60.415,-1139.323,60.334,-1139.129,60.334,-1138.887L60.334,-1134.260L52.838,-1134.260L52.838,-1138.887C52.838,-1139.129,52.758,-1139.323,52.596,-1139.484C52.434,-1139.645,52.241,-1139.726,51.998,-1139.726C51.756,-1139.726,51.562,-1139.645,51.401,-1139.484C51.239,-1139.323,51.158,-1139.129,51.158,-1138.887L51.158,-1127.972C51.158,-1127.730,51.239,-1127.536,51.401,-1127.375C51.562,-1127.214,51.756,-1127.133,51.998,-1127.133C52.241,-1127.133,52.434,-1127.214,52.596,-1127.375C52.758,-1127.536,52.838,-1127.730,52.838,-1127.972L52.838,-1132.777L60.334,-1132.777L60.334,-1127.972C60.334,-1127.730,60.415,-1127.536,60.577,-1127.375C60.738,-1127.214,60.932,-1127.133,61.174,-1127.133C61.401,-1127.133,61.594,-1127.198,61.756,-1127.359C61.918,-1127.520,61.998,-1127.714,61.998,-1127.972L61.998,-1138.887C61.998,-1139.129,61.918,-1139.323,61.756,-1139.484C61.594,-1139.645,61.401,-1139.726,61.174,-1139.726C60.932,-1139.726,60.738,-1139.645,60.577,-1139.484ZZ">
          </path>
        </g>
        <g id="strokes-72acc422-41ff-807d-8002-075ac48aa5d3" class="strokes">
          <g class="inner-stroke-shape">
            <defs>
              <clipPath id="inner-stroke-rumext-id-64--0">
                <use href="#stroke-shape-rumext-id-64--0">
                </use>
              </clipPath>
              <path stroke-miterlimit="2" rx="0" ry="0" style="fill:none;fill-opacity:none;stroke-width:4;stroke:#ffffff;stroke-opacity:0.5;stroke-dasharray:" d="M60.577,-1139.484C60.415,-1139.323,60.334,-1139.129,60.334,-1138.887L60.334,-1134.260L52.838,-1134.260L52.838,-1138.887C52.838,-1139.129,52.758,-1139.323,52.596,-1139.484C52.434,-1139.645,52.241,-1139.726,51.998,-1139.726C51.756,-1139.726,51.562,-1139.645,51.401,-1139.484C51.239,-1139.323,51.158,-1139.129,51.158,-1138.887L51.158,-1127.972C51.158,-1127.730,51.239,-1127.536,51.401,-1127.375C51.562,-1127.214,51.756,-1127.133,51.998,-1127.133C52.241,-1127.133,52.434,-1127.214,52.596,-1127.375C52.758,-1127.536,52.838,-1127.730,52.838,-1127.972L52.838,-1132.777L60.334,-1132.777L60.334,-1127.972C60.334,-1127.730,60.415,-1127.536,60.577,-1127.375C60.738,-1127.214,60.932,-1127.133,61.174,-1127.133C61.401,-1127.133,61.594,-1127.198,61.756,-1127.359C61.918,-1127.520,61.998,-1127.714,61.998,-1127.972L61.998,-1138.887C61.998,-1139.129,61.918,-1139.323,61.756,-1139.484C61.594,-1139.645,61.401,-1139.726,61.174,-1139.726C60.932,-1139.726,60.738,-1139.645,60.577,-1139.484ZZ" id="stroke-shape-rumext-id-64--0">
              </path>
            </defs>
            <use href="#stroke-shape-rumext-id-64--0" clip-path="url(&#x27;#inner-stroke-rumext-id-64--0&#x27;)">
            </use>
          </g>
        </g>
      </g>
      <g id="shape-72acc422-41ff-807d-8002-075ac48aa5d4">
        <g class="fills" id="fills-72acc422-41ff-807d-8002-075ac48aa5d4">
          <path stroke-miterlimit="2" rx="0" ry="0" style="fill:#de85de" d="M76.091,-1128.472C75.930,-1128.601,75.736,-1128.681,75.493,-1128.681L69.031,-1128.681L69.031,-1132.712L73.668,-1132.712C73.894,-1132.712,74.088,-1132.777,74.249,-1132.922C74.411,-1133.067,74.492,-1133.260,74.492,-1133.486C74.492,-1133.712,74.411,-1133.889,74.249,-1134.034C74.088,-1134.179,73.894,-1134.260,73.668,-1134.260L69.031,-1134.260L69.031,-1138.178L75.493,-1138.178C75.736,-1138.178,75.930,-1138.243,76.091,-1138.388C76.237,-1138.517,76.317,-1138.710,76.317,-1138.936C76.317,-1139.162,76.237,-1139.355,76.091,-1139.500C75.930,-1139.645,75.736,-1139.726,75.493,-1139.726L68.191,-1139.726C67.949,-1139.726,67.755,-1139.645,67.594,-1139.484C67.432,-1139.323,67.351,-1139.129,67.351,-1138.887L67.351,-1127.972C67.351,-1127.730,67.432,-1127.536,67.594,-1127.375C67.755,-1127.214,67.949,-1127.133,68.191,-1127.133L75.493,-1127.133C75.736,-1127.133,75.930,-1127.198,76.091,-1127.343C76.237,-1127.488,76.317,-1127.682,76.317,-1127.923C76.317,-1128.149,76.237,-1128.327,76.091,-1128.472ZZ">
          </path>
        </g>
        <g id="strokes-72acc422-41ff-807d-8002-075ac48aa5d4" class="strokes">
          <g class="inner-stroke-shape">
            <defs>
              <clipPath id="inner-stroke-rumext-id-65--0">
                <use href="#stroke-shape-rumext-id-65--0">
                </use>
              </clipPath>
              <path stroke-miterlimit="2" rx="0" ry="0" style="fill:none;fill-opacity:none;stroke-width:4;stroke:#ffffff;stroke-opacity:0.5;stroke-dasharray:" d="M76.091,-1128.472C75.930,-1128.601,75.736,-1128.681,75.493,-1128.681L69.031,-1128.681L69.031,-1132.712L73.668,-1132.712C73.894,-1132.712,74.088,-1132.777,74.249,-1132.922C74.411,-1133.067,74.492,-1133.260,74.492,-1133.486C74.492,-1133.712,74.411,-1133.889,74.249,-1134.034C74.088,-1134.179,73.894,-1134.260,73.668,-1134.260L69.031,-1134.260L69.031,-1138.178L75.493,-1138.178C75.736,-1138.178,75.930,-1138.243,76.091,-1138.388C76.237,-1138.517,76.317,-1138.710,76.317,-1138.936C76.317,-1139.162,76.237,-1139.355,76.091,-1139.500C75.930,-1139.645,75.736,-1139.726,75.493,-1139.726L68.191,-1139.726C67.949,-1139.726,67.755,-1139.645,67.594,-1139.484C67.432,-1139.323,67.351,-1139.129,67.351,-1138.887L67.351,-1127.972C67.351,-1127.730,67.432,-1127.536,67.594,-1127.375C67.755,-1127.214,67.949,-1127.133,68.191,-1127.133L75.493,-1127.133C75.736,-1127.133,75.930,-1127.198,76.091,-1127.343C76.237,-1127.488,76.317,-1127.682,76.317,-1127.923C76.317,-1128.149,76.237,-1128.327,76.091,-1128.472ZZ" id="stroke-shape-rumext-id-65--0">
              </path>
            </defs>
            <use href="#stroke-shape-rumext-id-65--0" clip-path="url(&#x27;#inner-stroke-rumext-id-65--0&#x27;)">
            </use>
          </g>
        </g>
      </g>
    </g>
    <g id="shape-72acc422-41ff-807d-8002-075ac48aa5d5" style="fill:#000000" rx="0" ry="0">
      <g id="shape-72acc422-41ff-807d-8002-075ac48aa5d6">
        <g class="fills" id="fills-72acc422-41ff-807d-8002-075ac48aa5d6">
          <path stroke-miterlimit="2" rx="0" ry="0" style="fill:#964baa" d="M92.156,-1113.565L39.061,-1113.565C37.981,-1113.565,37.000,-1112.586,37.000,-1111.508L37.000,-1101.811C37.000,-1100.636,37.981,-1099.754,39.061,-1099.754L92.156,-1099.754C99.615,-1099.754,105.602,-1093.681,105.602,-1086.237L105.602,-1072.328C105.602,-1064.884,99.615,-1058.811,92.156,-1058.811L50.838,-1058.811L50.838,-1083.788C50.838,-1084.964,49.955,-1085.845,48.777,-1085.845L39.061,-1085.845C37.981,-1085.845,37.000,-1084.964,37.000,-1083.788L37.000,-1047.057C37.000,-1045.980,37.981,-1045.000,39.061,-1045.000L92.156,-1045.000C107.270,-1045.000,119.538,-1057.244,119.538,-1072.328L119.538,-1086.237C119.538,-1101.322,107.270,-1113.565,92.156,-1113.565ZZ">
          </path>
        </g>
        <g id="strokes-72acc422-41ff-807d-8002-075ac48aa5d6" class="strokes">
          <g class="inner-stroke-shape">
            <defs>
              <clipPath id="inner-stroke-rumext-id-67--0">
                <use href="#stroke-shape-rumext-id-67--0">
                </use>
              </clipPath>
              <path stroke-miterlimit="2" rx="0" ry="0" style="fill:none;fill-opacity:none;stroke-width:4;stroke:#ffffff;stroke-opacity:0.5;stroke-dasharray:" d="M92.156,-1113.565L39.061,-1113.565C37.981,-1113.565,37.000,-1112.586,37.000,-1111.508L37.000,-1101.811C37.000,-1100.636,37.981,-1099.754,39.061,-1099.754L92.156,-1099.754C99.615,-1099.754,105.602,-1093.681,105.602,-1086.237L105.602,-1072.328C105.602,-1064.884,99.615,-1058.811,92.156,-1058.811L50.838,-1058.811L50.838,-1083.788C50.838,-1084.964,49.955,-1085.845,48.777,-1085.845L39.061,-1085.845C37.981,-1085.845,37.000,-1084.964,37.000,-1083.788L37.000,-1047.057C37.000,-1045.980,37.981,-1045.000,39.061,-1045.000L92.156,-1045.000C107.270,-1045.000,119.538,-1057.244,119.538,-1072.328L119.538,-1086.237C119.538,-1101.322,107.270,-1113.565,92.156,-1113.565ZZ" id="stroke-shape-rumext-id-67--0">
              </path>
            </defs>
            <use href="#stroke-shape-rumext-id-67--0" clip-path="url(&#x27;#inner-stroke-rumext-id-67--0&#x27;)">
            </use>
          </g>
        </g>
      </g>
      <g id="shape-72acc422-41ff-807d-8002-075ac48ad702">
        <g class="fills" id="fills-72acc422-41ff-807d-8002-075ac48ad702">
          <path stroke-miterlimit="2" rx="0" ry="0" style="fill:#c1398c" d="M211.665,-1113.565L133.347,-1113.565C132.267,-1113.565,131.286,-1112.684,131.286,-1111.508L131.286,-1101.811C131.286,-1100.636,132.267,-1099.754,133.347,-1099.754L211.665,-1099.754C212.842,-1099.754,213.824,-1100.636,213.824,-1101.811L213.824,-1111.508C213.824,-1112.684,212.842,-1113.565,211.665,-1113.565ZZM211.665,-1058.811L145.124,-1058.811L145.124,-1072.328L197.826,-1072.328C199.004,-1072.328,199.887,-1073.308,199.887,-1074.483L199.887,-1084.082C199.887,-1085.258,199.004,-1086.237,197.826,-1086.237L133.347,-1086.237C132.267,-1086.237,131.286,-1085.258,131.286,-1084.082L131.286,-1047.057C131.286,-1045.980,132.267,-1045.000,133.347,-1045.000L211.665,-1045.000C212.842,-1045.000,213.824,-1045.980,213.824,-1047.057L213.824,-1056.754C213.824,-1057.929,212.842,-1058.811,211.665,-1058.811ZZ">
          </path>
        </g>
        <g id="strokes-72acc422-41ff-807d-8002-075ac48ad702" class="strokes">
          <g class="inner-stroke-shape">
            <defs>
              <clipPath id="inner-stroke-rumext-id-68--0">
                <use href="#stroke-shape-rumext-id-68--0">
                </use>
              </clipPath>
              <path stroke-miterlimit="2" rx="0" ry="0" style="fill:none;fill-opacity:none;stroke-width:4;stroke:#ffffff;stroke-opacity:0.5;stroke-dasharray:" d="M211.665,-1113.565L133.347,-1113.565C132.267,-1113.565,131.286,-1112.684,131.286,-1111.508L131.286,-1101.811C131.286,-1100.636,132.267,-1099.754,133.347,-1099.754L211.665,-1099.754C212.842,-1099.754,213.824,-1100.636,213.824,-1101.811L213.824,-1111.508C213.824,-1112.684,212.842,-1113.565,211.665,-1113.565ZZM211.665,-1058.811L145.124,-1058.811L145.124,-1072.328L197.826,-1072.328C199.004,-1072.328,199.887,-1073.308,199.887,-1074.483L199.887,-1084.082C199.887,-1085.258,199.004,-1086.237,197.826,-1086.237L133.347,-1086.237C132.267,-1086.237,131.286,-1085.258,131.286,-1084.082L131.286,-1047.057C131.286,-1045.980,132.267,-1045.000,133.347,-1045.000L211.665,-1045.000C212.842,-1045.000,213.824,-1045.980,213.824,-1047.057L213.824,-1056.754C213.824,-1057.929,212.842,-1058.811,211.665,-1058.811ZZ" id="stroke-shape-rumext-id-68--0">
              </path>
            </defs>
            <use href="#stroke-shape-rumext-id-68--0" clip-path="url(&#x27;#inner-stroke-rumext-id-68--0&#x27;)">
            </use>
          </g>
        </g>
      </g>
      <g id="shape-72acc422-41ff-807d-8002-075ac48ad703">
        <g class="fills" id="fills-72acc422-41ff-807d-8002-075ac48ad703">
          <path stroke-miterlimit="2" rx="0" ry="0" style="fill:#eb266e" d="M305.725,-1048.134L291.102,-1073.797C290.022,-1075.854,288.550,-1077.716,286.882,-1079.283C288.550,-1080.850,290.022,-1082.711,291.102,-1084.768L305.725,-1110.431C306.510,-1111.802,305.529,-1113.565,303.860,-1113.565L292.770,-1113.565C291.985,-1113.565,291.298,-1113.174,290.906,-1112.488L279.030,-1091.527C277.166,-1088.294,273.632,-1086.237,269.903,-1086.237L256.850,-1086.237C253.022,-1086.237,249.587,-1088.294,247.625,-1091.527L235.749,-1112.488C235.455,-1113.174,234.768,-1113.565,233.983,-1113.565L222.795,-1113.565C221.224,-1113.565,220.243,-1111.802,221.028,-1110.431L235.553,-1084.768C236.731,-1082.711,238.203,-1080.850,239.773,-1079.283C238.203,-1077.716,236.731,-1075.854,235.553,-1073.797L221.028,-1048.134C220.243,-1046.763,221.224,-1045.000,222.795,-1045.000L233.983,-1045.000C234.768,-1045.000,235.455,-1045.392,235.749,-1046.077L247.625,-1067.039C249.587,-1070.271,253.022,-1072.328,256.850,-1072.328L269.903,-1072.328C273.632,-1072.328,277.166,-1070.271,279.030,-1067.039L290.906,-1046.077C291.298,-1045.392,291.985,-1045.000,292.770,-1045.000L303.860,-1045.000C305.529,-1045.000,306.510,-1046.763,305.725,-1048.134ZZ">
          </path>
        </g>
        <g id="strokes-72acc422-41ff-807d-8002-075ac48ad703" class="strokes">
          <g class="inner-stroke-shape">
            <defs>
              <clipPath id="inner-stroke-rumext-id-69--0">
                <use href="#stroke-shape-rumext-id-69--0">
                </use>
              </clipPath>
              <path stroke-miterlimit="2" rx="0" ry="0" style="fill:none;fill-opacity:none;stroke-width:4;stroke:#ffffff;stroke-opacity:0.5;stroke-dasharray:" d="M305.725,-1048.134L291.102,-1073.797C290.022,-1075.854,288.550,-1077.716,286.882,-1079.283C288.550,-1080.850,290.022,-1082.711,291.102,-1084.768L305.725,-1110.431C306.510,-1111.802,305.529,-1113.565,303.860,-1113.565L292.770,-1113.565C291.985,-1113.565,291.298,-1113.174,290.906,-1112.488L279.030,-1091.527C277.166,-1088.294,273.632,-1086.237,269.903,-1086.237L256.850,-1086.237C253.022,-1086.237,249.587,-1088.294,247.625,-1091.527L235.749,-1112.488C235.455,-1113.174,234.768,-1113.565,233.983,-1113.565L222.795,-1113.565C221.224,-1113.565,220.243,-1111.802,221.028,-1110.431L235.553,-1084.768C236.731,-1082.711,238.203,-1080.850,239.773,-1079.283C238.203,-1077.716,236.731,-1075.854,235.553,-1073.797L221.028,-1048.134C220.243,-1046.763,221.224,-1045.000,222.795,-1045.000L233.983,-1045.000C234.768,-1045.000,235.455,-1045.392,235.749,-1046.077L247.625,-1067.039C249.587,-1070.271,253.022,-1072.328,256.850,-1072.328L269.903,-1072.328C273.632,-1072.328,277.166,-1070.271,279.030,-1067.039L290.906,-1046.077C291.298,-1045.392,291.985,-1045.000,292.770,-1045.000L303.860,-1045.000C305.529,-1045.000,306.510,-1046.763,305.725,-1048.134ZZ" id="stroke-shape-rumext-id-69--0">
              </path>
            </defs>
            <use href="#stroke-shape-rumext-id-69--0" clip-path="url(&#x27;#inner-stroke-rumext-id-69--0&#x27;)">
            </use>
          </g>
        </g>
      </g>
    </g>
  </g>
</svg>